# xmcd
#
# Track frame offsets: 
#        150
#        21145
#        42435
#        61170
#        78012
#        95047
#        110995
#        128392
#        149622
#        175887
#        201460
#        222995
#        241940
#        264517
#        286680
#
# Disc length: 4045 seconds
#
# Revision: 0
# Processed by: cddbd v1.5.2PL0 Copyright (c) Steve Scherf et al.
# Submitted via: ExactAudioCopyFreeDBPlugin 1.0
#
DISCID=da0fcb0f
DTITLE=James Blundell - Touch of Water
DYEAR=1993
DGENRE=Country
TTITLE0=Touch of Water
TTITLE1=Brilliant Man
TTITLE2=Walking Away
TTITLE3=Mysterious Ways
TTITLE4=So Close To Home
TTITLE5=The Load
TTITLE6=In Your Eyes
TTITLE7=Fast Train
TTITLE8=Doctor's Daughter
TTITLE9=Can't Love Alone
TTITLE10=Better Get Used To It
TTITLE11=Dream Ride
TTITLE12=Song For A Hero
TTITLE13=Two To One
TTITLE14=Weary Of This World
EXTD=
EXTT0=
EXTT1=
EXTT2=
EXTT3=
EXTT4=
EXTT5=
EXTT6=
EXTT7=
EXTT8=
EXTT9=
EXTT10=
EXTT11=
EXTT12=
EXTT13=
EXTT14=
PLAYORDER=
